<svg data-name="Layer 1" xmlns="http://www.w3.org/2000/svg" width="884.6" height="628.6">
  <ellipse cx="75.2" cy="619.6" rx="75.1" ry="9" fill="#e6e6e6"/>
  <path fill="#e6e6e6" d="M196 0h689v441H196z"/>
  <path fill="#fff" d="M216 56h649v359H216z"/>
  <path fill="#6c63ff" d="M196 0h688v29H196z"/>
  <circle cx="217.7" cy="15" r="5.4" fill="#fff"/>
  <circle cx="238.2" cy="15" r="5.4" fill="#fff"/>
  <circle cx="258.8" cy="15" r="5.4" fill="#fff"/>
  <path d="M585 146a5 5 0 000 1zm-83 38l-1-1 1 1zm-2 19v1a2 2 0 010-1zm85-56l-1 4 1-4zm28-29h1a5 5 0 001-1zm38 2a1 1 0 011-1 6 6 0 00-1-1v2zm39-27h1zm0 0zm-107 28h-1 1zm156-27v1zM497 226v1a1 1 0 000-1zM387 378c-4-1 6-2 0-3 1 1-5 2 0 3zm31-134a2 2 0 01-1 1l1-1zm57-15a10 10 0 01-2 0zm-78 20a4 4 0 00-1 0 2 2 0 011 0zm0 0h1a5 5 0 00-1 0zm-33 0h1zm28 1zm341 126h-1 1zm9-32zM472 230a5 5 0 001 0h-1zm269-6v-1 1z" fill="#7f77ff"/>
  <path d="M743 328a2 2 0 010-1l1 1a9 9 0 00-1-3 29 29 0 001-4v-8c-1 0-1-3-2 0v2a7 7 0 000 1v6a10 10 0 010-7l-2-3 4-11c-1-7-1-17-3-22-1-2 1-2 1-3l1 3c-1-4-1-12-3-13 1-6 2 3 2-5v1c3-14-4-23-1-38v1c1-18-2-38 1-56 0-5-1-5-2-8l2-1-2-6c-1-7 4-13 1-22l-1 1c1-4 0-11 1-10a2 2 0 01-1-3h1l-1-8c0-7 3 1 3-9 0-3-2-10-3-9l-1 4v-3a7 7 0 01-1 0v-1h-1a2 2 0 00-2 0h-41 2c-4-2-3 0-6-1-1 0-1 0 0 0h-4l2-1c-7-1-10 2-13 0h1c-7 1-4 1-5 2h-4l-1-1h-1a8 8 0 00-1-1 12 12 0 00-1 1l-3-1-1 1v1a18 18 0 00-3 0v6l-2 4c2 2 1-4 2 1-2 1 1 5-1 9-1-1 0-5-1-1a3 3 0 010 1 4 4 0 010 2 15 15 0 010 3 5 5 0 00-2 0l-3 1h-8l-16-2c-1 2-6 1-10 2 0-1 1-2 3-2h-4l-4 1 1-1h-8a46 46 0 01-4 1h-2a23 23 0 01-1-1h-2l1 1a9 9 0 011 2h-3 1a7 7 0 01-4 0 34 34 0 013-1c-3-1-1 1-4 1l-3-2h4a69 69 0 01-6-1 8 8 0 01-1 3l1 4v4h-1a4 4 0 000 1l1 5-1 2c1 3 0 12 2 9v-1 1a40 40 0 010 7v6a100 100 0 00-4 0h-3-1l-15 1-3-1h-9c4-1-2-1 4-1h-12c2-1-3-1-6-1l4 1a61 61 0 01-7 0l1-2c-5-1-10 0-14 1a40 40 0 01-6 0h-2a35 35 0 01-2 0 45 45 0 01-5-1c-2 1 1 1 3 1l2 1a78 78 0 01-9-1 38 38 0 00-1 7 38 38 0 00-1 3v2l1 1a11 11 0 000 2 11 11 0 011 6c1 0 2-1 3 4l-2 4-1-1a3 3 0 010-1v-1c0-2 0-4-1-2l1 1a18 18 0 000 2c-1 3-1 6-2 5 1 3 1 2 2 0l-1 14 1-1c-1 9 1 4 1 10 0 4-2-1-1 5-1 4-1 1-2 0a22 22 0 010 7v1a2 2 0 01-1 1 4 4 0 001 1h-1a7 7 0 002 1v2a6 6 0 00-2 0h-1a8 8 0 01-1-1 2 2 0 01-1 0 22 22 0 002 0v-1-1h-1l1-1a24 24 0 00-2 0 7 7 0 00-2 0c-2 1-2 2-7 2 1-1-1-1-3-1 3 0 2 1-1 2h-7l3 1-7 1 1-1c-4 1-8-2-12-1-2 0 0-1-2-2h-12c2 1 2 1-2 2l9-1-6 2 8-1c-3 1-3 1-1 2-4-2-8 1-13 0v-3a27 27 0 00-8 0h-3l-4 1h-7a98 98 0 01-1 4l1-4a18 18 0 011 6l-1 3 1 2v1l-2 3v2a5 5 0 002 3 2 2 0 01-1 0 17 17 0 01-2-1 3 3 0 00-1 1h-1-1a41 41 0 00-1 1 17 17 0 01-8 1c2-1-1-2 4-3l-4 1a2 2 0 00-1 0h-5a8 8 0 01-2 0 2 2 0 01-1 0 5 5 0 01-4 2v-1c0 1-4 1-2 2-3-2-7-2-11-2-6 0-11 1-15-1l-8 1h-4-2-2-1a15 15 0 00-2 0 5 5 0 00-2 0 6 6 0 01-3 2 17 17 0 01-1 3v1a6 6 0 01-1-2v-2c-2-1-1 3-1 7v5a11 11 0 010 4l-1-1c-1 3 2 9 1 15 0 0 0-1 0 0 2 4 2 12 3 17-2-1-1-2-2-1 0 3 2-1 2 4-1 2-1 6-3 6v4h-1l2 16 1-1c2 4-1 4 0 8l-2 1 3 16c-2-3-3-9-3-13l1 11-1-4c2 4 3 9 3 14-2 0-2 2-3 4v12l11 2h1v-1h3a62 62 0 014 0h8l17 1c-5-3 3 0 2-3h4l9 2c2 1-3 0-3 1 6 0 3 1 7 2-1-1 2-1 5-1l-4-1c8-2 7 2 15 1l-2 1c4-1 16 0 20-3 1 0 2 1 0 2 10 0 23-3 31-2v1h6l7-1-2 1c7 1 11 0 16-1a61 61 0 018-1c0 2 8 3 12 3a106 106 0 0014 0l11-2h1a183 183 0 013 0h2a38 38 0 0010 1l25 1c-2 0 0-2 2-2h6a1 1 0 010 1v-1c1 2 7 2 11 2l1-3c10 4 28-1 34 2l8-1v1a185 185 0 0020 1l-2 1c5 0 6-4 11-4l1 2h27l-2 1c4 0 15 1 15-2 1 2 9 0 13-1v2l4-2a14 14 0 012-1h4c2 0 2 1 0 1a13 13 0 004 0 13 13 0 014-1 25 25 0 010-3l1 4a33 33 0 000-6l-1-4a8 8 0 010-1v-1-1a22 22 0 010-3l1-4-1-6 1 1c1-7-2-11 0-16a1 1 0 000-1v10c2 0 2-5 3-1 0-4-3-10-2-15zm1-10v2a49 49 0 000-3h-1a2 2 0 011 1zM688 94a2 2 0 011 0h-2a43 43 0 011 0z" fill="#6c63ff"/>
  <path d="M498 227h-1a1 1 0 011 0zm-26 3zm270 85a5 5 0 010-1v2zM585 146zm68-53l1 5v-6h2c-1 0-4-1 0-1l-3-1v3zm0 23v-1l-1 1c1 1 1 2 1 0zm-95 42v-1c-2 0 0 0 0 1zm-45-2h2l1-1-2 1h-3 2zm-143 92v1c2 0 3-2 0-1zm-33 79a7 7 0 000 6v-6zm264 52l4-1h-2l-2 1z" fill="#7f77ff"/>
  <path d="M620 253a149 149 0 01-5 35c-12 44-45 75-62 90a38 38 0 01-10-1h-6a222 222 0 01-12-46c-3-20-3-43 3-67a146 146 0 0111-29c23-44 62-70 62-70s20 40 19 88zm-120-50v1a2 2 0 010-1zm-28 27a5 5 0 001 0h-1zm1-1h2a10 10 0 01-2 0zm24-2a1 1 0 000-1v1zm1 0h-1a1 1 0 011 0z" fill="#fff"/>
  <path d="M554 331a222 222 0 01-12 46h-5l-11 2c-17-15-50-47-62-91a148 148 0 01-5-35 180 180 0 011-24c4-1 8 2 12 1l-1 1 7-1-3-1h7c3-1 4-2 1-2 2 0 4 0 3 1 5 0 5-1 7-2h4l-1 1h1v2h-2a2 2 0 001 0 8 8 0 001 1h1a6 6 0 012 0v-2a7 7 0 01-2-1h1a4 4 0 01-1-1h1v-1-1a22 22 0 000-7c1 1 1 4 2 0-1-6 1-1 1-5 0-6-2-1-1-10l-1 1 1-14c-1 2-1 3-2 0 1 1 1-2 2-5v1l1 1c12 12 27 29 37 49a146 146 0 0112 29c6 24 6 47 3 67z" fill="#fff"/>
  <path d="M418 244a2 2 0 01-1 1l1-1zm-26 6z" fill="#3f3d56"/>
  <path d="M538 377h-1l-11 2a106 106 0 01-14 0c-4 0-12-1-12-3a61 61 0 00-8 1c-21-7-46-19-66-38-29-28-41-65-47-89 4 0 8 0 11 2-2-1 2-1 2-2v1a5 5 0 004-2h8a2 2 0 011 0l4-1c-5 1-2 2-4 3a17 17 0 008-1 41 41 0 011-1h2a3 3 0 011-1 17 17 0 002 1 2 2 0 001 0 5 5 0 01-2-3v-1-1l2-3v-1l-1-2 1-3a193 193 0 0139 18 149 149 0 0129 22c18 17 30 37 37 56a222 222 0 0113 46zm48 0zm118-150s-6 68-51 112c-20 20-45 31-67 38h-6c-2 0-4 2-2 2l-25-1a38 38 0 01-10-1h-2a222 222 0 0113-46c7-19 19-39 36-56a148 148 0 0130-22c40-24 84-26 84-26z" fill="#3f3d56"/>
  <path d="M64 187s-13 28-34 34 51 0 51 0-4-20 1-23-18-11-18-11z" fill="#a0616a"/>
  <path d="M42 140c0-6 3-12 8-12a7 7 0 00-1 0c-6 0-9 6-8 12 0 7 5 12 10 11-4-1-8-5-9-11z" fill="#2f2e41"/>
  <path d="M47 149c-6-2-10-8-8-12v-1a7 7 0 00-1 2c-2 5 2 11 8 13s13 0 14-5c-2 4-8 5-13 3z" fill="#2f2e41"/>
  <path d="M4 269l2 52 29 67s-8 35 7 33 1-34 1-34l-13-71-3-58z" fill="#a0616a"/>
  <circle cx="84.2" cy="178.6" r="27.3" fill="#a0616a"/>
  <path d="M107 226l-27-11-21 2H38S6 228 7 234s15 104 21 99 10-6 10-6l69-6z" fill="#cfcce0"/>
  <path d="M12 232H8s-4 2-4 10l-4 30h20z" fill="#cfcce0"/>
  <path d="M49 244l-15-25a3 3 0 00-3-1h-4a3 3 0 00-3 5l8 28s12 50 0 77v12s-12 37-9 66l4 53s-7 19-4 25v8c-4 17-4 36-4 54v6s-8 8-1 9l31 3s5-8 2-9l8-41s12-18 11-29c0 0 4-18 0-27l1-55 5 66-7 82s-10 7-4 10 45 15 45 8-3-8-3-8l16-167-8-70s-59-5-54-70c0 0 15-30 29-36a1 1 0 000-1l-6-2a1 1 0 00-1 0c-2 1-24 9-34 29z" fill="#2f2e41"/>
  <path d="M77 560v1a82 82 0 01-11 32c-2 5-5 11-3 15 2 10 1 13 1 13h20v-3l11 3a12 12 0 007 0c3-1 5-3 5-7 0-3-2-6-5-8a37 37 0 01-12-19l7-27zm-51 0v2a82 82 0 01-11 32c-3 5-5 10-4 14 3 10 1 14 1 14h20v-4l11 3a12 12 0 008 0c2-1 5-3 5-6s-3-6-5-9a37 37 0 01-12-18l-1-1 8-27zm64-377s19-11 27-12c0 0 2-5 0-9 0 0-1-16-21-15 0 0-22-12-30-7s-24 28-17 43c0 0-8 4-9 2s-6 3 2 9c0 0-11 11 0 18 0 0-1-10 5-13s1 0 1 0-11 14 6 19c0 0-6-7 0-13 0 0-2 14 9 16 0 0-6-9-3-12 0 0 2 11 8 12l5 1 1-8s-4 10 6 11c0 0-5-16 2-26s8-16 8-16z" fill="#2f2e41"/>
  <ellipse cx="209.7" cy="278.4" rx="11.8" ry="9.3" transform="rotate(-53 -6 369)" fill="#2f2e41"/>
  <path d="M62 142a14 14 0 00-6 5 14 14 0 00-3 6 14 14 0 006-5 14 14 0 003-6z" fill="#6c63ff"/>
  <path d="M157 378l-2-2 12-9a10 10 0 003-8l-5-46a19 19 0 017-18l13-9a11 11 0 0115 2l3 4-2 2-3-4a9 9 0 00-12-2l-12 9a16 16 0 00-7 15l6 46a12 12 0 01-5 12z" fill="#cfcce0"/>
  <path fill="#cfcce0" d="M161 382l9-12-3-5-14 7-61 42 11 14 58-46z"/>
  <rect x="373.6" y="415" width="29.2" height="105.5" rx="7.3" transform="rotate(-37 106 637)" fill="#e6e6e6"/>
  <path d="M269 360l-1-3h-1a7 7 0 01-1 10l-12 9a7 7 0 01-10-1l2 2a7 7 0 0010 2l12-9a7 7 0 001-10z" opacity=".2"/>
  <path d="M235 312l-1-1 1 1zm-2-3zm13 18v1zm6 8zm3 5h0zm12 16zm-38-53zm-33 11h0zm24-22zm-4-3a2 2 0 00-1 0 1 1 0 011 0zm-5 4z" fill="#7f77ff"/>
  <path d="M267 356h-1 1l-4-6h-1v-1l-1-1 1 1-1-2h-1l-1-1 1-1h-1l-1-2h-1l-1-1h1l-1-2-2-1a21 21 0 00-1-3l-1-1a1 1 0 01-1-1h1a12 12 0 01-2-2l-1 1v-1-1 1a3 3 0 010-1h-1v-1-1c-1 0 0 0 0 0l-2-1-2-4a16 16 0 00-2-1v-1a4 4 0 01-1-1h1l-2-1v-1a9 9 0 010-1l-3-3s1 1 0 0a11 11 0 010-1l-2-2h-1v-1l1 1-1-1c0-1 0-1 0 0l-1-2-2-1v-1h1a6 6 0 01-2-2h1a4 4 0 01-1 0v-1l-1 1v-2 1a2 2 0 010-1l-1-1h-1l-1-1h1l-1-1v1l-1-2v-1l-1-1-1-1 1 2v-1 1l-1-2-2-3v1l-1-1v-1l-1-1-2-3c0 1 0 0 0 0l1 1-1-1v-1 1h-1a3 3 0 01-1 1v1s-1 0 0 0l-4 3a33 33 0 01-2 2l-1 1s1-1 0 0l-2 1-1 1a10 10 0 01-3 3v-1 1h-1 1-2l-2 2h1l-2 1a19 19 0 01-2 1 12 12 0 012-1 6 6 0 00-2 1l1-1a5 5 0 01-2 2h-2l-1 1h1a3 3 0 010 2h1a9 9 0 011 2l1 2h1l1 1v1c0 1 0 0 0 0v1l1 1v-1l1 2 2 2v1c1 1 3 2 3 4h1s-1 0 0 0a3 3 0 010 1l3 3 1 2a39 39 0 003 4l3 5h1v1l1 2 1-1c0 2 3 4 3 5l1 1a26 26 0 002 3h-1l2 1 3 4h-1l2 2 1 1a3 3 0 012 1h-1l1 2v-1a1 1 0 001 1l1 2 2 2v1l-1-2-1 1a7 7 0 012 1v1a1 1 0 001 0 4 4 0 000 1l1 1v-1l-1-1a1 1 0 011 1h1v2l1 2a9 9 0 001 0 3 3 0 001 1v1a1 1 0 000-1v1l1-1a3 3 0 001 0h1c2-1 3-3 6-3 3-1 5-4 7-6l1-1h1v-1l3-2 1-1v-1l1-1 1-1 1-1zm-5-7h-1 1zm-25 20z" fill="#6c63ff"/>
  <path d="M238 369zm8-41zm13 16h-1l1 1v-1zm-2-3h-1 1zm-15-19c0-1 0 0 0 0zm-4-6v-1 1zm-26-24zm-14 11zm20 40v1-1z" fill="#7f77ff"/>
  <path d="M90 265l2 52 28 67s-7 35 8 34 1-35 1-35l-14-71-2-58z" fill="#a0616a"/>
  <path fill="#cfcce0" d="M100 228l1-5 6 3 17 27-36 19 12-44z"/>
</svg>